<?xml version="1.0" encoding="utf-8"?>
<svg xmlns="http://www.w3.org/2000/svg" version="1.1" width="512px" height="512px" style="shape-rendering:geometricPrecision; text-rendering:geometricPrecision; image-rendering:optimizeQuality; fill-rule:evenodd; clip-rule:evenodd" xmlns:bx="https://boxy-svg.com">
  <defs>
    <bx:export>
      <bx:file format="svg"/>
    </bx:export>
  </defs>
  <g>
    <path style="opacity: 1; fill: rgba(0, 0, 0, 0);" d="M -0.5,-0.5 C 170.167,-0.5 340.833,-0.5 511.5,-0.5C 511.5,170.167 511.5,340.833 511.5,511.5C 340.833,511.5 170.167,511.5 -0.5,511.5C -0.5,340.833 -0.5,170.167 -0.5,-0.5 Z"/>
  </g>
  <g>
    <path style="opacity:1" fill="#fcf9fa" d="M 298.5,16.5 C 343.33,12.1644 377.163,29.1644 400,67.5C 407.704,80.6129 413.037,94.6129 416,109.5C 417.218,132.142 417.885,154.809 418,177.5C 419.184,197.422 423.184,216.755 430,235.5C 433.216,242.044 437.216,248.044 442,253.5C 442.958,255.199 443.458,257.033 443.5,259C 440.853,269.794 436.686,279.96 431,289.5C 426.119,295.193 419.952,298.693 412.5,300C 400.877,301.527 389.21,301.861 377.5,301C 359.518,298.836 341.518,296.836 323.5,295C 300.995,292.335 279.995,296.501 260.5,307.5C 265.803,302.172 272.137,298.339 279.5,296C 287.643,293.214 295.976,291.214 304.5,290C 330.147,288.802 355.814,288.136 381.5,288C 392.215,287.812 402.549,285.812 412.5,282C 414.09,280.954 415.59,279.787 417,278.5C 420.189,272.099 422.689,265.432 424.5,258.5C 418.935,251.72 414.102,244.386 410,236.5C 399.282,205.556 396.616,173.89 402,141.5C 406.296,107.069 397.63,76.4024 376,49.5C 358.872,30.1869 337.372,19.8536 311.5,18.5C 307.167,17.8333 302.833,17.1667 298.5,16.5 Z"/>
  </g>
  <g>
    <path style="opacity:1" fill="#fdfafa" d="M 281.5,21.5 C 262.966,30.5258 253.466,45.5258 253,66.5C 252.39,78.8768 251.39,91.2101 250,103.5C 243.467,129.704 226.633,143.537 199.5,145C 193.5,145.667 187.5,145.667 181.5,145C 158.755,139.932 135.755,137.932 112.5,139C 97.3083,142.177 85.1417,150.01 76,162.5C 66.6487,176.205 60.3153,191.205 57,207.5C 52.658,244.78 68.158,269.28 103.5,281C 118.151,284.308 132.817,284.308 147.5,281C 156.595,278.286 165.595,275.286 174.5,272C 185.076,269.298 193.243,272.465 199,281.5C 204.6,290.987 208.6,300.987 211,311.5C 206.752,299.831 200.585,289.331 192.5,280C 186.725,275.486 180.391,274.486 173.5,277C 160.059,285.553 145.726,292.22 130.5,297C 83.1664,302.993 52.6664,283.159 39,237.5C 32.4835,202.069 40.4835,170.403 63,142.5C 75.125,129.855 89.9583,122.688 107.5,121C 117.5,120.667 127.5,120.333 137.5,120C 151.349,92.249 173.683,81.249 204.5,87C 229.186,96.2123 228.353,99.0457 202,95.5C 178.825,94.839 159.991,103.506 145.5,121.5C 162.474,125.524 179.641,128.524 197,130.5C 218.365,131.667 232.699,122.334 240,102.5C 243.315,88.2979 245.982,73.9645 248,59.5C 251.604,40.0684 262.77,27.4017 281.5,21.5 Z"/>
  </g>
  <g/>
  <g>
    <path style="opacity:1" fill="#fdfafb" d="M 426.5,312.5 C 435.283,332.78 442.45,353.78 448,375.5C 454.912,425.52 435.745,461.353 390.5,483C 344.442,502.441 301.109,497.775 260.5,469C 239.149,451.612 227.315,429.112 225,401.5C 223.539,381.201 225.206,361.201 230,341.5C 234.393,335.962 239.559,335.129 245.5,339C 247.527,341.177 248.861,343.677 249.5,346.5C 247.902,361.816 246.568,377.149 245.5,392.5C 245.44,429.599 262.44,455.433 296.5,470C 329.718,482.338 362.385,481.004 394.5,466C 421.086,451.731 436.253,429.564 440,399.5C 440.696,388.804 440.362,378.137 439,367.5C 434.988,349.118 430.821,330.785 426.5,312.5 Z"/>
  </g>
  <g>
    <path style="opacity:1" fill="#fcf8f8" d="M 366.5,363.5 C 371.598,362.429 374.764,364.429 376,369.5C 376.791,373.926 376.457,378.259 375,382.5C 368.955,388.48 364.955,387.146 363,378.5C 361.676,372.854 362.843,367.854 366.5,363.5 Z"/>
  </g>
  <g>
    <path style="opacity:1" fill="#fbf7f8" d="M 392.5,363.5 C 399.167,363.676 402.167,367.176 401.5,374C 401.675,377.746 400.842,381.246 399,384.5C 395.626,387.405 392.626,387.072 390,383.5C 386.04,376.068 386.873,369.401 392.5,363.5 Z"/>
  </g>
  <g>
    <path style="opacity:1" fill="#fdfbfb" d="M 288.5,376.5 C 291.32,376.248 293.986,376.748 296.5,378C 315.213,403.025 340.213,416.525 371.5,418.5C 390.619,417.964 407.453,411.631 422,399.5C 421.554,402.739 420.221,405.739 418,408.5C 406.993,421.089 393.16,428.589 376.5,431C 340.598,434.258 310.098,423.092 285,397.5C 279.357,389.139 280.523,382.139 288.5,376.5 Z"/>
  </g>
</svg>